inDegrees=no
num_controls=7
num_derivatives=13
num_iterations=159
num_multipliers=7
num_parameters=0
num_slacks=7
num_states=26
objective=5.460141
objective_accelerations=0.524740
objective_balance=0.009426
objective_effort=0.421459
objective_height=4.434674
objective_ligament=0.069842
solver_duration=1337.241182
status=Solve_Succeeded
success=true
DataType=double
version=3
OpenSimVersion=4.4-2022-07-23-0e9fedc
endheader
time	/jointset/ground_pelvis/pelvis_tilt/value	/jointset/ground_pelvis/pelvis_tx/value	/jointset/ground_pelvis/pelvis_ty/value	/jointset/hip_r/hip_flexion_r/value	/jointset/hip_r/hip_adduction_r/value	/jointset/hip_r/hip_rotation_r/value	/jointset/back/lumbar_extension/value	/jointset/patellofemoral_r/patellar_flexion_r/value	/jointset/knee_r/knee_flexion_r/value	/jointset/knee_r/knee_adduction_r/value	/jointset/knee_r/knee_rotation_r/value	/jointset/ankle_r/ankle_angle_r/value	/jointset/subtalar_r/subtalar_angle_r/value	/jointset/ground_pelvis/pelvis_tilt/speed	/jointset/ground_pelvis/pelvis_tx/speed	/jointset/ground_pelvis/pelvis_ty/speed	/jointset/hip_r/hip_flexion_r/speed	/jointset/hip_r/hip_adduction_r/speed	/jointset/hip_r/hip_rotation_r/speed	/jointset/back/lumbar_extension/speed	/jointset/patellofemoral_r/patellar_flexion_r/speed	/jointset/knee_r/knee_flexion_r/speed	/jointset/knee_r/knee_adduction_r/speed	/jointset/knee_r/knee_rotation_r/speed	/jointset/ankle_r/ankle_angle_r/speed	/jointset/subtalar_r/subtalar_angle_r/speed	/forceset/tau_hip_flexion_r	/forceset/tau_hip_adduction_r	/forceset/tau_hip_rotation_r	/forceset/tau_knee_flexion_r	/forceset/tau_ankle_angle_r	/forceset/tau_subtalar_angle_r	/forceset/tau_lumbar_extension	lambda_cid13_p0	lambda_cid14_p0	lambda_cid14_p1	lambda_cid14_p2	lambda_cid14_p3	lambda_cid14_p4	lambda_cid14_p5	/jointset/ground_pelvis/pelvis_tilt/accel	/jointset/ground_pelvis/pelvis_tx/accel	/jointset/ground_pelvis/pelvis_ty/accel	/jointset/hip_r/hip_flexion_r/accel	/jointset/hip_r/hip_adduction_r/accel	/jointset/hip_r/hip_rotation_r/accel	/jointset/back/lumbar_extension/accel	/jointset/patellofemoral_r/patellar_flexion_r/accel	/jointset/knee_r/knee_flexion_r/accel	/jointset/knee_r/knee_adduction_r/accel	/jointset/knee_r/knee_rotation_r/accel	/jointset/ankle_r/ankle_angle_r/accel	/jointset/subtalar_r/subtalar_angle_r/accel	gamma_cid13_p0	gamma_cid14_p0	gamma_cid14_p1	gamma_cid14_p2	gamma_cid14_p3	gamma_cid14_p4	gamma_cid14_p5
1	-0.185812345006974	-0.002693360405261033	0.6674361141978962	1.301691508641976	-0.2355179689074912	-0.107503176795998	-0.7853939411415515	1.433235081381825	1.433235081381772	-0.1744537730628779	0.1745313327945163	0.4362915923159969	0.1815664366578676	0.0674748784528398	0.005669418424496881	0.01692975976237373	-0.1034897870102618	-0.001084167943306429	0.002875424651831747	0.000709213120162858	-0.02473620141743602	-0.02473620141743542	0.01188885286133908	-0.0002440593047311425	0.01007789668119746	0.003170749304940219	-0.3018710137334071	0.01966515353651026	0.01398553388784	-0.4515300816290756	-0.02694010721615006	0.01343877805326501	0.3389035720151546	-0.04212486936625555	-58.8571136253368	-6.555733275899867	3.850656131139002	8.679128690284751	-758.967888664451	78.97859872684843	1.124592626488823	0.1230929399533675	1.638427130166071	-4.868137194214895	0.2771783479289395	-0.4514810933078001	0.0507008444479964	-4.79052954185108	-4.790529541851131	0.7489509955564876	-0.01078776057137315	-1.206639737293358	-0.09869105942721559	6.376398932113145e-10	-9.781366856330543e-10	1.438347621600287e-08	8.231636400270664e-09	2.806748515482799e-09	-5.321804021230812e-09	2.172771086174666e-08
1.01	-0.1850823901435548	-0.002630280034935218	0.6676872078461197	1.300414121447576	-0.235515173273251	-0.1074943640925958	-0.7853814705585425	1.432748679712564	1.432748679712561	-0.1742945897896028	0.1745281176342403	0.4363323025587137	0.1815928625220208	0.07847365574415241	0.006972218440956064	0.03328898055767706	-0.1519807545744531	0.001632165585812258	-0.001081633899122977	0.001999591535836658	-0.07254425307523481	-0.07254425307523446	0.01999477898642306	-0.0003929745639017208	-0.001905986828250054	0.00210809390453658	-0.3029191033465374	0.01974947416036635	0.01405409236230055	-0.451474047413951	-0.0272734904022818	0.01342318824165969	0.3402599544115653	-0.04211818672970143	-59.01171637512109	-6.586802719243837	3.852444476636334	8.429234192638575	-759.8692675324423	78.96667389901724	1.081156409259272	0.1377087583909213	1.634668691397575	-4.838540320526832	0.2671971631395778	-0.3631281656869005	0.2004095478509138	-4.775962004781805	-4.775962004781812	0.8484606137214472	-0.01603272720161072	-1.189784361525856	-0.1109914872187894	4.614651419606433e-09	3.353124434474527e-09	3.749577310877836e-08	4.00151706958182e-08	4.016882205046821e-09	-1.225061329781958e-08	6.875124856173103e-08
1.02	-0.1842437202814592	-0.002553404619265013	0.6681018935297331	1.298652031820941	-0.2354855470421705	-0.1075241839606523	-0.7853496555498161	1.431784193721317	1.431784193721363	-0.1740529378165253	0.1745235954576453	0.43625406962561	0.1816084740907956	0.08921787818773633	0.008428427493375291	0.04964816684037419	-0.200430273458868	0.004281951424387248	-0.004851089637984071	0.004578098260460508	-0.1203530658145352	-0.120353065814535	0.02838259282099246	-0.0005054625675377458	-0.01371073848791378	0.001007890229256571	-0.3039671929596368	0.01983379478420013	0.01412265083677024	-0.4514180131988235	-0.02760687358842465	0.01340759843000643	0.3416163368080045	-0.04211964483988883	-59.1748598843193	-6.615092873696001	3.848906550556435	8.185741377097722	-760.9067660827461	78.99201428186863	1.073681656943069	0.1537747471453887	1.638420227644832	-4.85984745825961	0.2638688098201748	-0.4139605308891049	0.3083265062379449	-4.790681758151407	-4.790681758151437	0.8053285374535804	-0.003502309464401093	-1.170813367336584	-0.1062007144025286	9.341346905971197e-09	1.226780667516196e-08	6.478151091556945e-08	7.859088365892442e-08	-2.741486332371166e-09	-1.739164431440468e-08	1.267860862556324e-07
1.03	-0.1832988392091604	-0.002461318596541318	0.6686800858813683	1.296405933332121	-0.235429737053583	-0.1075908156692368	-0.7852861793472754	1.430341651592923	1.430341651592941	-0.1737260797839123	0.1745181501963627	0.436058393333292	0.1816127799671154	0.09971833270877094	0.01000259275512297	0.0659815970449666	-0.2487527917967924	0.006871419224929952	-0.008448453222230916	0.008277900182539178	-0.1681516708386001	-0.1681516708386001	0.03702786700762856	-0.000577663096684545	-0.02542363445426825	-0.0001633090718368754	-0.3044162486261719	0.01994517403855005	0.01421326707309326	-0.4508988726389067	-0.02812986139856976	0.01338835565806787	0.3423355694810392	-0.04213753872675526	-59.36241140636404	-6.644140188174254	3.83966092677206	8.175428636510969	-761.2533614658536	78.93499197529073	1.032231504518539	0.1613078136182119	1.629493916686227	-4.812954742415625	0.2552075271918154	-0.328594979730336	0.4249207253023628	-4.773899364516013	-4.773899364516026	0.8999544092262521	-0.008158929973743911	-1.171394888184326	-0.1250402211068243	1.407569222866219e-08	2.122925851912065e-08	9.210983485413626e-08	1.17235904567618e-07	-9.581166117003303e-09	-2.251443269568361e-08	1.849332841535533e-07
1.04	-0.1822501527606827	-0.002353076841614354	0.6694213504350132	1.29367770951576	-0.2353482880345847	-0.1076926151551716	-0.785180882387488	1.428421233516293	1.428421233516274	-0.173311603499438	0.1745121669287189	0.4357456146459297	0.1816048817137954	0.1099789534232008	0.01165957393402911	0.08226260724234544	-0.2968553389689873	0.009409757506291708	-0.01188464510799279	0.01294224970899641	-0.215928255461945	-0.2159282554619453	0.04590624319256937	-0.0006130638391868951	-0.03713121749660034	-0.001432935698693925	-0.3048653042926612	0.02005655329290298	0.01430388330939946	-0.4503797320789896	-0.02865284920872087	0.01336911288613228	0.3430548021541162	-0.04216355088163248	-59.55847136860034	-6.670217261416213	3.824846932298909	8.169329653942189	-761.7376420207942	78.91580399496587	1.025714895622086	0.1703379305770983	1.627936226202118	-4.815853225113725	0.2536429059839579	-0.381726191192142	0.501236027113635	-4.786277678007422	-4.786277678007452	0.8519489371145337	0.003857647864552464	-1.169750782532082	-0.1258861795552869	1.850519198669917e-08	2.833773026343042e-08	1.168921250638513e-07	1.54732661365795e-07	-1.314329746984194e-08	-2.760047935854673e-08	2.373425179069206e-07
